<?xml version="1.0" standalone="no"?>
<!DOCTYPE svg PUBLIC "-//W3C//DTD SVG 20010904//EN"
 "http://www.w3.org/TR/2001/REC-SVG-20010904/DTD/svg10.dtd">
<svg version="1.0" xmlns="http://www.w3.org/2000/svg"
 width="1700.000000pt" height="1144.000000pt" viewBox="0 0 1700.000000 1144.000000"
 preserveAspectRatio="xMidYMid meet">

<g transform="translate(0.000000,1144.000000) scale(0.100000,-0.100000)"
fill="#000000" stroke="none">
<path d="M7093 9662 c-92 -33 -153 -87 -201 -178 -6 -12 -34 -122 -62 -245
-27 -123 -55 -242 -60 -264 -42 -169 -170 -756 -170 -780 0 -38 22 -70 63 -92
27 -14 71 -18 264 -21 247 -5 409 6 636 40 162 24 207 20 274 -26 147 -99 132
-324 -28 -406 -35 -18 -203 -47 -414 -71 -178 -20 -792 -15 -827 7 -14 9 -74
-16 -96 -39 -17 -18 -36 -86 -82 -289 -33 -146 -60 -280 -60 -298 0 -42 32
-86 73 -99 51 -16 253 -58 362 -75 190 -30 331 -40 565 -40 239 0 387 11 586
44 86 14 123 16 158 8 65 -14 125 -62 159 -128 25 -47 28 -64 24 -115 -5 -68
-21 -105 -66 -152 -45 -48 -82 -63 -204 -83 -432 -72 -895 -70 -1346 6 -167
28 -164 28 -155 13 4 -8 -1 -9 -17 -4 -34 10 -47 24 -31 34 10 6 10 10 -3 21
-13 11 -15 10 -10 -2 4 -9 0 -15 -8 -15 -8 0 -14 5 -14 11 1 38 -5 56 -17 56
-7 0 -19 7 -26 15 -11 14 -14 13 -25 -1 -9 -14 -14 -14 -20 -4 -5 8 -4 11 3 6
6 -3 14 3 17 15 5 15 2 25 -9 31 -9 5 -13 14 -10 20 4 7 2 8 -4 4 -7 -4 -12
-1 -12 8 0 9 -5 15 -12 14 -6 -2 -14 6 -16 17 -2 11 -9 25 -14 30 -8 7 -9 4
-4 -10 5 -15 4 -17 -4 -9 -6 6 -12 18 -13 25 -2 8 -10 25 -19 37 l-16 23 -16
-22 c-8 -12 -12 -27 -9 -33 3 -6 2 -8 -2 -3 -5 4 -9 29 -10 56 -1 27 -8 56
-16 65 -8 9 -34 41 -59 70 -25 30 -51 55 -58 55 -8 1 -10 6 -6 14 5 8 4 9 -4
2 -5 -5 -12 -19 -15 -30 -4 -15 -5 -13 -4 6 2 27 -29 83 -42 75 -4 -3 -7 5 -7
17 1 15 -5 22 -16 21 -9 -1 -14 4 -12 11 3 7 -2 15 -11 19 -11 4 -15 12 -11
22 5 14 4 15 -9 4 -12 -10 -15 -9 -15 6 -1 18 -1 18 -14 1 -17 -22 -28 -2 -15
25 7 12 3 21 -11 31 -11 7 -17 17 -13 20 3 4 1 7 -6 7 -7 0 -10 4 -7 9 4 5 -5
8 -18 7 -18 -2 -23 1 -18 12 3 9 1 13 -5 9 -6 -4 -10 1 -9 11 1 11 -6 17 -20
17 -11 0 -29 7 -39 15 -17 14 -18 13 -12 -3 4 -10 3 -16 -2 -12 -8 5 -9 21 -2
68 0 5 6 5 11 2 6 -3 10 -4 10 -1 0 3 -13 12 -30 21 -16 9 -30 20 -30 26 0 6
5 7 11 4 6 -4 5 2 -2 13 -11 17 -14 18 -27 6 -11 -12 -12 -18 -2 -30 7 -8 11
-17 8 -19 -3 -3 -11 1 -18 10 -9 11 -9 22 -1 45 6 18 6 28 1 25 -6 -4 -10 1
-10 10 0 9 -5 13 -10 10 -14 -9 -40 13 -40 33 0 13 3 12 15 -4 8 -10 15 -14
15 -8 0 14 -21 34 -37 34 -18 0 -16 -25 3 -58 l16 -27 -21 24 c-23 26 -26 43
-11 71 9 16 8 18 -6 13 -12 -4 -15 -3 -10 5 6 10 -26 52 -39 52 -3 0 -7 1 -10
1 -3 1 -11 2 -17 3 -7 0 -13 14 -13 31 0 42 -13 60 -31 44 -12 -10 -19 -8 -37
11 l-22 24 22 -18 c21 -18 22 -18 20 2 0 11 -5 18 -9 16 -4 -3 -8 3 -8 13 0
10 -14 33 -31 51 -28 30 -41 37 -63 33 -5 -1 -4 5 3 13 11 13 9 15 -10 11 -17
-4 -20 -2 -11 7 16 16 15 25 -2 31 -10 4 -13 1 -10 -7 6 -16 -15 -33 -38 -33
-22 0 -13 12 9 12 24 0 26 18 5 40 -10 11 -19 25 -20 30 0 6 -9 11 -19 12 -14
2 -15 1 -3 -5 23 -11 23 -32 0 -32 -21 0 -44 32 -32 45 4 4 -3 4 -16 1 -14 -5
-24 -3 -27 6 -4 9 -24 13 -68 12 -67 -2 -100 -14 -129 -48 -16 -20 -16 -22 0
-34 15 -11 15 -14 2 -22 -8 -5 -19 -9 -25 -9 -5 0 -4 3 3 6 14 5 17 23 4 23
-5 0 -14 -12 -20 -26 -7 -14 -16 -23 -21 -20 -12 8 -18 -10 -26 -80 -4 -32
-13 -72 -20 -89 -7 -16 -20 -82 -29 -145 -8 -63 -18 -126 -22 -140 -4 -18 -3
-21 4 -11 7 9 8 -2 5 -35 -7 -62 -13 -70 -13 -16 0 23 -4 42 -10 42 -5 0 -10
-13 -10 -29 0 -16 -7 -45 -15 -64 -8 -20 -15 -61 -15 -91 0 -35 -5 -60 -15
-69 -8 -8 -14 -28 -14 -43 0 -48 -7 -78 -19 -82 -7 -2 -12 -8 -12 -13 0 -6 6
-7 13 -3 8 5 7 2 -2 -9 -17 -21 -10 -105 10 -118 8 -5 34 -9 59 -9 184 -3 299
-2 308 4 6 3 13 3 16 -2 3 -5 20 -6 38 -4 28 4 30 6 13 13 -16 6 -17 8 -3 8 9
1 21 -6 25 -14 7 -11 16 -13 40 -6 17 5 35 6 39 3 4 -4 4 -2 1 4 -5 8 16 14
66 18 39 4 90 9 112 12 80 9 137 11 125 4 -16 -10 36 -23 53 -14 7 4 9 3 4 -1
-4 -5 3 -20 15 -33 13 -14 17 -22 10 -18 -11 7 -11 4 -1 -12 7 -12 16 -19 20
-16 22 14 39 -102 23 -155 -7 -23 -8 -24 -15 -5 -7 18 -8 18 -8 -3 -1 -35 -12
-53 -31 -53 -10 0 -21 -8 -25 -19 -3 -10 -18 -21 -34 -24 -16 -3 -36 -13 -45
-22 -9 -9 -31 -15 -53 -15 -66 2 -208 -12 -219 -21 -15 -12 -46 -13 -289 -10
-110 1 -202 1 -205 1 -3 -1 -22 -2 -43 -3 -36 -2 -49 6 -24 16 7 3 6 6 -5 6
-9 1 -20 -4 -23 -9 -4 -6 -16 -8 -28 -4 -12 3 -19 3 -15 -1 4 -4 -6 -18 -21
-31 -25 -21 -29 -32 -33 -94 -3 -39 -11 -77 -17 -83 -6 -6 -11 -23 -11 -38 0
-45 -12 -89 -22 -83 -6 4 -8 -5 -3 -24 3 -18 2 -33 -4 -37 -6 -3 -11 -11 -11
-16 0 -6 5 -7 10 -4 7 4 9 -2 5 -18 -4 -14 -2 -28 4 -32 6 -3 9 -10 6 -15 -6
-10 20 -19 65 -24 14 -1 32 -6 40 -11 8 -6 26 -10 40 -11 90 -7 158 -18 177
-30 12 -8 33 -14 45 -13 22 1 22 1 -2 9 l-25 8 27 1 c14 1 28 -4 30 -10 2 -7
12 -7 30 1 29 14 83 6 73 -10 -3 -6 -3 -10 2 -11 98 -8 293 -7 298 1 3 5 14
10 23 9 14 0 13 -2 -3 -9 -14 -7 -8 -8 20 -4 56 7 126 15 153 17 26 2 29 14 5
20 -10 2 -4 3 12 1 17 -3 35 -4 40 -4 212 4 280 4 264 -2 -11 -4 -18 -12 -14
-17 3 -6 12 -8 19 -5 7 3 19 -3 27 -12 9 -11 9 -15 2 -10 -9 5 -11 2 -7 -8 3
-9 10 -14 14 -11 5 3 14 -8 22 -25 7 -16 16 -30 20 -30 5 0 8 -7 8 -16 0 -8
-3 -13 -7 -11 -5 3 -9 -17 -10 -45 -3 -42 -32 -124 -33 -90 0 6 -18 -6 -41
-29 -34 -34 -38 -43 -28 -56 12 -13 9 -13 -24 1 -20 8 -37 11 -37 6 0 -4 6
-10 13 -13 6 -2 -14 -2 -45 1 -32 2 -58 1 -58 -4 0 -26 -817 -25 -920 0 -22 6
-23 5 -5 -4 18 -9 17 -10 -5 -5 -14 2 -32 5 -40 6 -10 0 -8 3 5 9 15 7 10 9
-22 9 -25 1 -43 6 -43 12 0 8 -16 10 -52 6 -33 -4 -48 -3 -39 3 12 7 9 10 -12
15 -15 4 -39 5 -52 3 -14 -3 -25 -1 -25 6 0 6 -5 3 -11 -7 -6 -10 -9 -27 -6
-37 3 -10 -1 -21 -8 -23 -9 -4 -10 5 -5 34 6 33 5 37 -6 28 -8 -7 -13 -17 -12
-23 1 -6 -6 -23 -15 -37 -12 -18 -16 -36 -11 -53 4 -18 2 -31 -8 -39 -16 -14
-49 -166 -51 -242 -1 -27 -7 -56 -14 -63 -7 -7 -13 -29 -13 -47 0 -18 -7 -41
-16 -49 -18 -19 -16 -82 3 -79 7 2 10 -4 7 -12 -7 -18 14 -84 33 -107 9 -10
22 -14 31 -10 15 5 16 4 2 -13 -14 -17 -13 -18 4 -12 16 6 17 5 7 -7 -9 -11
-9 -16 0 -22 8 -4 9 -3 5 4 -5 8 1 12 16 11 13 0 17 -3 11 -6 -7 -2 -13 -9
-13 -14 0 -6 9 -5 21 2 12 6 19 7 15 1 -3 -5 7 -14 22 -20 43 -16 92 -23 92
-12 0 6 -14 10 -32 10 -41 0 -34 6 17 13 23 4 34 3 26 -2 -10 -6 -10 -10 -1
-16 13 -8 132 14 140 26 9 13 114 39 159 39 32 0 42 3 31 10 -13 8 -12 10 1
15 19 7 63 13 103 14 16 1 27 4 23 7 -8 8 25 44 40 44 7 0 13 -4 13 -10 0 -5
-6 -10 -14 -10 -8 0 -18 -4 -21 -10 -4 -6 7 -10 25 -10 17 0 29 4 26 9 -3 5
18 12 46 16 59 8 106 23 76 24 -10 1 -18 5 -18 10 0 6 12 6 32 0 41 -11 51
-11 44 0 -3 4 16 7 41 5 35 -2 43 0 33 7 -11 8 -8 9 13 5 16 -4 39 0 57 9 16
8 45 15 65 15 19 0 35 4 35 9 0 5 8 7 19 4 10 -2 26 4 36 13 12 12 29 17 52
15 19 -1 39 2 46 7 14 12 176 51 215 53 27 1 27 1 -3 9 -26 7 -23 8 25 10 30
2 65 3 77 3 12 0 20 3 18 8 -7 10 20 16 74 17 23 1 54 8 67 17 13 8 34 15 47
15 12 0 28 5 34 11 6 6 32 11 58 11 36 0 45 3 41 14 -4 11 1 13 22 8 22 -5 24
-3 12 6 -13 10 -12 11 3 6 23 -7 110 15 120 31 4 7 20 12 35 12 24 -2 24 -2 5
-6 -13 -2 -23 -9 -23 -14 0 -13 12 -11 35 5 11 7 36 17 55 21 31 7 33 9 15 17
l-20 8 20 -4 c11 -2 29 -7 40 -11 16 -5 17 -5 5 4 -11 8 -1 9 38 4 36 -4 52
-2 52 6 0 6 10 11 23 11 13 0 29 6 36 13 11 10 12 9 6 -2 -6 -11 -4 -13 9 -8
10 4 20 7 22 7 3 0 3 3 1 8 -3 4 23 8 56 10 38 2 66 8 73 17 5 7 23 17 40 20
64 15 159 69 149 85 -3 5 5 10 17 12 13 2 24 11 26 22 4 20 25 46 37 46 3 0 3
-5 -1 -11 -4 -7 0 -9 12 -6 11 4 84 22 164 41 80 19 285 69 455 111 447 110
904 222 1265 310 636 156 779 193 825 216 51 26 107 82 131 132 14 29 23 34
92 50 104 25 565 138 1275 312 323 80 604 153 625 164 76 39 122 118 124 214
1 85 -20 123 -156 282 -117 136 -457 537 -561 660 -33 39 -169 199 -302 356
-133 156 -375 442 -538 634 -330 390 -367 430 -407 451 -79 41 -196 31 -266
-22 -70 -54 -76 -70 -188 -568 -64 -282 -103 -477 -100 -492 4 -13 18 -32 33
-41 42 -28 455 -24 645 5 152 23 185 20 239 -25 39 -33 59 -79 59 -133 0 -48
-11 -73 -53 -117 -38 -40 -63 -48 -207 -67 -237 -32 -385 -38 -583 -25 -250
16 -228 35 -289 -232 -62 -268 -61 -272 79 -305 328 -76 669 -89 1022 -38
l117 18 47 -23 c52 -25 86 -65 97 -117 20 -87 -41 -183 -129 -203 -191 -45
-586 -63 -836 -37 -153 16 -161 18 -185 44 -25 28 -74 86 -512 602 -128 151
-275 325 -327 385 -51 61 -135 160 -186 220 -649 765 -1156 1359 -1193 1398
-93 95 -232 131 -349 89z m-2006 -1808 c-3 -3 -12 -4 -19 -1 -8 3 -5 6 6 6 11
1 17 -2 13 -5z m-160 -126 c-3 -8 -6 -5 -6 6 -1 11 2 17 5 13 3 -3 4 -12 1
-19z m-60 -20 c-3 -8 -6 -5 -6 6 -1 11 2 17 5 13 3 -3 4 -12 1 -19z m442 6
c-6 -7 -7 -19 -3 -25 4 -7 3 -9 -4 -5 -15 9 -11 43 5 43 9 0 10 -4 2 -13z m33
-18 c7 4 8 2 4 -5 -9 -13 -26 -5 -25 12 0 9 2 8 6 -1 2 -6 10 -9 15 -6z m-485
-37 c1 -17 -5 -43 -13 -58 -8 -14 -12 -17 -8 -6 4 11 9 34 10 50 3 56 8 61 11
14z m508 -49 c3 -5 -1 -10 -9 -10 -9 0 -16 5 -16 10 0 6 4 10 9 10 6 0 13 -4
16 -10z m-495 -55 c0 -14 -2 -25 -4 -25 -2 0 -6 11 -8 25 -3 14 -1 25 3 25 5
0 9 -11 9 -25z m-53 -27 c-3 -8 -6 -5 -6 6 -1 11 2 17 5 13 3 -3 4 -12 1 -19z
m-20 -160 c-3 -7 -5 -2 -5 12 0 14 2 19 5 13 2 -7 2 -19 0 -25z m813 -8 c0 -5
-2 -10 -4 -10 -3 0 -8 5 -11 10 -3 6 -1 10 4 10 6 0 11 -4 11 -10z m200 -230
c0 -5 -9 -9 -20 -7 -30 5 -32 12 -5 15 14 1 25 -3 25 -8z m-1113 -142 c-3 -8
-6 -5 -6 6 -1 11 2 17 5 13 3 -3 4 -12 1 -19z m1253 -2 c0 -2 -8 -10 -17 -17
-16 -13 -17 -12 -4 4 13 16 21 21 21 13z m-1236 -49 c-1 -17 -3 -36 -4 -42 -1
-5 -2 -12 -3 -15 0 -3 -8 -13 -18 -22 -22 -21 -24 -13 -4 22 8 14 14 37 15 51
0 20 7 39 14 39 1 0 0 -15 0 -33z m1251 -7 c3 -5 1 -10 -4 -10 -6 0 -11 5 -11
10 0 6 2 10 4 10 3 0 8 -4 11 -10z m91 -87 c-7 -7 -26 7 -26 19 0 6 6 6 15 -2
9 -7 13 -15 11 -17z m-66 -27 c0 -11 -19 -15 -25 -6 -3 5 1 10 9 10 9 0 16 -2
16 -4z m104 -8 c-3 -4 -9 -8 -15 -8 -5 0 -9 4 -9 8 0 5 7 9 15 9 8 0 12 -4 9
-9z m-771 -15 c-7 -2 -19 -2 -25 0 -7 3 -2 5 12 5 14 0 19 -2 13 -5z m-622
-12 c-11 -7 -6 -11 20 -14 l34 -4 -37 -1 c-36 -2 -47 6 -31 21 3 4 11 7 17 7
6 0 5 -4 -3 -9z m104 -11 c3 -6 -1 -7 -9 -4 -18 7 -21 14 -7 14 6 0 13 -4 16
-10z m268 3 c-7 -2 -19 -2 -25 0 -7 3 -2 5 12 5 14 0 19 -2 13 -5z m1081 -42
c-5 -5 -33 30 -34 43 0 4 9 -2 19 -15 11 -13 17 -26 15 -28z m-24 -6 c14 -19
14 -19 -2 -6 -10 7 -18 18 -18 24 0 6 1 8 3 6 1 -2 9 -13 17 -24z m-453 -57
c-3 -8 -6 -5 -6 6 -1 11 2 17 5 13 3 -3 4 -12 1 -19z m537 -4 c3 -8 2 -12 -4
-9 -6 3 -10 10 -10 16 0 14 7 11 14 -7z m-544 -68 c0 -52 -6 -43 -13 18 -3 30
-1 43 4 35 5 -8 9 -32 9 -53z m610 -35 c12 -12 10 -11 -9 0 -14 9 -27 22 -29
30 -3 11 -2 11 9 -1 8 -8 21 -21 29 -29z m-623 -33 c-3 -8 -6 -5 -6 6 -1 11 2
17 5 13 3 -3 4 -12 1 -19z m-16 -41 c-10 -9 -11 -8 -5 6 3 10 9 15 12 12 3 -3
0 -11 -7 -18z m-51 -21 c0 -3 -4 -8 -10 -11 -5 -3 -10 -1 -10 4 0 6 5 11 10
11 6 0 10 -2 10 -4z m-980 -112 c0 -3 -6 -11 -12 -17 -16 -14 -48 -18 -48 -6
0 5 9 9 20 9 11 0 20 5 20 10 0 6 5 10 10 10 6 0 10 -3 10 -6z m-75 -164 c-4
-12 -9 -19 -12 -17 -3 3 -2 15 2 27 4 12 9 19 12 17 3 -3 2 -15 -2 -27z m2210
-180 c3 -5 1 -10 -4 -10 -6 0 -11 5 -11 10 0 6 2 10 4 10 3 0 8 -4 11 -10z
m-2115 -50 c0 -5 -9 -10 -20 -10 -11 0 -20 5 -20 10 0 6 9 10 20 10 11 0 20
-4 20 -10z m-47 -61 c7 0 1 -5 -12 -10 -13 -5 -26 -7 -29 -4 -3 3 1 5 9 5 12
0 11 2 -1 11 -12 9 -12 10 3 5 10 -3 24 -6 30 -7z m-66 -5 c-3 -3 -12 -4 -19
-1 -8 3 -5 6 6 6 11 1 17 -2 13 -5z m776 -71 c-7 -2 -19 -2 -25 0 -7 3 -2 5
12 5 14 0 19 -2 13 -5z m-228 -13 c-16 -4 -39 -8 -50 -8 -16 0 -15 2 5 8 14 4
36 8 50 8 22 0 22 -1 -5 -8z m282 4 c-3 -3 -12 -4 -19 -1 -8 3 -5 6 6 6 11 1
17 -2 13 -5z m553 -84 c0 -5 -2 -10 -4 -10 -3 0 -8 5 -11 10 -3 6 -1 10 4 10
6 0 11 -4 11 -10z m13 -40 c3 -11 1 -18 -4 -14 -5 3 -9 -3 -9 -12 0 -10 -2
-15 -5 -12 -6 5 4 58 10 58 1 0 5 -9 8 -20z m-116 -195 c-23 -22 -33 -18 -12
5 10 11 20 18 23 16 2 -3 -3 -12 -11 -21z m23 -20 c-7 -8 -17 -15 -22 -15 -6
0 -5 7 2 15 7 8 17 15 22 15 6 0 5 -7 -2 -15z m-1270 -5 c-8 -5 -26 -9 -40 -9
l-25 1 25 8 c14 4 32 8 40 9 13 1 13 0 0 -9z m27 -16 c-3 -3 -12 -4 -19 -1 -8
3 -5 6 6 6 11 1 17 -2 13 -5z m863 -44 c0 -5 -9 -10 -20 -10 -11 0 -20 5 -20
10 0 6 9 10 20 10 11 0 20 -4 20 -10z m-653 -16 c-3 -3 -12 -4 -19 -1 -8 3 -5
6 6 6 11 1 17 -2 13 -5z m2273 -50 c0 -8 -5 -12 -10 -9 -6 4 -8 11 -5 16 9 14
15 11 15 -7z m-2743 -26 c-3 -8 -6 -5 -6 6 -1 11 2 17 5 13 3 -3 4 -12 1 -19z
m2527 -57 c19 -7 18 -8 -4 -14 -12 -3 -37 -3 -54 0 -31 7 -31 7 -6 14 32 9 41
9 64 0z m-2534 -40 c0 -9 -7 -26 -15 -37 -13 -17 -14 -17 -15 -1 0 9 5 17 11
17 7 0 9 10 5 26 -5 17 -3 23 4 19 5 -3 10 -14 10 -24z m2317 -27 c-3 -3 -12
-4 -19 -1 -8 3 -5 6 6 6 11 1 17 -2 13 -5z m-144 -21 c-7 -2 -19 -2 -25 0 -7
3 -2 5 12 5 14 0 19 -2 13 -5z m-2192 -56 c-10 -9 -11 -8 -5 6 3 10 9 15 12
12 3 -3 0 -11 -7 -18z m1926 -13 c-3 -3 -12 -4 -19 -1 -8 3 -5 6 6 6 11 1 17
-2 13 -5z m-54 -11 c-7 -2 -19 -2 -25 0 -7 3 -2 5 12 5 14 0 19 -2 13 -5z
m-1853 -19 c0 -8 -5 -12 -10 -9 -6 4 -8 11 -5 16 9 14 15 11 15 -7z m1320
-114 c-20 -13 -33 -13 -25 0 3 6 14 10 23 10 15 0 15 -2 2 -10z m-1390 -45 c0
-14 -4 -25 -9 -25 -4 0 -6 11 -3 25 2 14 6 25 8 25 2 0 4 -11 4 -25z m1247 19
c-3 -3 -12 -4 -19 -1 -8 3 -5 6 6 6 11 1 17 -2 13 -5z m80 0 c-3 -3 -12 -4
-19 -1 -8 3 -5 6 6 6 11 1 17 -2 13 -5z m-240 -60 c-3 -3 -12 -4 -19 -1 -8 3
-5 6 6 6 11 1 17 -2 13 -5z m-90 -10 c-3 -3 -12 -4 -19 -1 -8 3 -5 6 6 6 11 1
17 -2 13 -5z m-64 -11 c-7 -2 -19 -2 -25 0 -7 3 -2 5 12 5 14 0 19 -2 13 -5z
m-860 -71 c-3 -7 -9 -10 -12 -5 -3 4 -10 11 -15 15 -4 4 1 6 12 5 12 -1 18 -6
15 -15z m530 -9 c-7 -2 -19 -2 -25 0 -7 3 -2 5 12 5 14 0 19 -2 13 -5z m-306
-59 c-3 -3 -12 -4 -19 -1 -8 3 -5 6 6 6 11 1 17 -2 13 -5z m-132 -13 c3 -5 2
-12 -3 -15 -5 -3 -9 1 -9 9 0 17 3 19 12 6z m138 -8 c-7 -2 -19 -2 -25 0 -7 3
-2 5 12 5 14 0 19 -2 13 -5z m54 1 c-3 -3 -12 -4 -19 -1 -8 3 -5 6 6 6 11 1
17 -2 13 -5z"/>
<path d="M6808 5253 c7 -3 16 -2 19 1 4 3 -2 6 -13 5 -11 0 -14 -3 -6 -6z"/>
<path d="M5125 7880 c-3 -5 -2 -10 4 -10 5 0 13 5 16 10 3 6 2 10 -4 10 -5 0
-13 -4 -16 -10z"/>
<path d="M5455 7559 c-4 -6 -5 -12 -2 -15 2 -3 7 2 10 11 7 17 1 20 -8 4z"/>
<path d="M5690 7249 c0 -4 11 -14 25 -23 14 -9 25 -12 25 -6 0 5 -5 10 -11 10
-6 0 -9 6 -6 13 3 8 -3 13 -14 13 -11 0 -19 -3 -19 -7z"/>
<path d="M6170 6700 c0 -5 5 -10 10 -10 6 0 10 5 10 10 0 6 -4 10 -10 10 -5 0
-10 -4 -10 -10z"/>
<path d="M12495 6572 c-2 -3 -18 -6 -34 -7 -17 -2 -46 -12 -66 -23 -19 -12
-35 -17 -35 -12 0 15 -24 12 -46 -6 -13 -11 -14 -14 -3 -11 9 3 16 -1 16 -8 0
-10 -5 -11 -19 -4 -12 7 -50 4 -124 -11 -116 -22 -128 -26 -118 -42 5 -7 -2
-9 -20 -4 -16 4 -26 2 -26 -4 0 -7 -8 -9 -21 -5 -26 9 -101 -14 -93 -27 4 -5
-9 -7 -29 -3 -36 7 -117 -19 -117 -37 0 -5 -16 -6 -35 -2 -46 8 -95 -3 -74
-18 11 -8 11 -9 -3 -4 -10 3 -30 -1 -45 -9 -15 -8 -37 -12 -50 -9 -15 4 -25 1
-29 -9 -3 -10 -18 -15 -37 -15 -18 0 -50 -5 -72 -11 -22 -7 -53 -14 -70 -17
-16 -3 -42 -12 -56 -19 -14 -8 -36 -11 -49 -8 -15 4 -27 1 -35 -10 -6 -8 -18
-15 -26 -15 -7 1 -23 0 -34 -1 l-20 -2 20 -9 c14 -6 -1 -9 -48 -9 -38 -1 -66
-5 -63 -10 7 -10 -17 -21 -42 -20 -10 1 -7 4 8 9 22 7 23 8 4 9 -12 1 -26 -5
-32 -12 -6 -7 -28 -14 -49 -15 -21 -2 -40 -7 -41 -12 -2 -6 -8 -7 -13 -4 -6 3
-30 -4 -55 -15 -29 -14 -53 -19 -71 -15 -18 5 -24 4 -19 -5 5 -7 -4 -11 -28
-11 -19 0 -41 -6 -48 -12 -7 -7 -29 -13 -48 -14 -19 0 -62 -9 -95 -18 -33 -10
-79 -23 -103 -29 -34 -9 -39 -13 -25 -19 12 -6 7 -7 -14 -4 -18 3 -35 1 -39
-5 -3 -6 -12 -8 -20 -5 -7 3 -26 1 -41 -4 -15 -4 -41 -11 -56 -14 -15 -4 -25
-11 -22 -16 3 -5 -16 -8 -45 -7 -28 1 -54 -2 -58 -8 -4 -5 -15 -10 -24 -11
-58 -3 -68 -5 -68 -18 0 -17 -27 -29 -32 -14 -3 7 -12 9 -23 4 -17 -6 -17 -9
-5 -17 12 -9 12 -10 -3 -5 -10 3 -38 0 -62 -6 -39 -11 -42 -13 -27 -25 15 -13
14 -13 -5 -4 -22 11 -78 9 -90 -2 -3 -4 -19 -7 -35 -7 -15 0 -28 -4 -28 -9 0
-5 -15 -8 -32 -7 -23 1 -32 -3 -30 -13 2 -10 -5 -12 -28 -7 -21 4 -29 2 -24
-5 3 -6 0 -10 -7 -8 -30 4 -50 -2 -44 -11 4 -7 -2 -9 -18 -4 -30 7 -129 -20
-151 -41 -16 -17 -41 -21 -31 -5 7 12 -12 12 -40 0 l-20 -9 20 -1 c17 -2 16
-3 -5 -10 -14 -4 -41 -8 -60 -9 -31 -1 -151 -25 -190 -38 -12 -4 -11 -7 5 -14
18 -8 18 -9 -5 -8 -14 1 -27 0 -30 -1 -3 -1 -25 -3 -50 -4 -25 -1 -60 -9 -78
-18 -18 -9 -40 -14 -48 -11 -7 3 -14 0 -14 -7 0 -6 -8 -9 -17 -6 -10 3 -31 -1
-47 -9 -15 -8 -32 -12 -37 -9 -5 3 -9 0 -9 -6 0 -6 -10 -8 -25 -4 -15 4 -25 2
-25 -5 0 -6 6 -11 13 -11 6 -1 1 -7 -13 -15 -14 -8 -32 -14 -40 -14 -8 0 -3 5
13 11 27 10 28 28 1 28 -8 0 -12 -4 -9 -10 5 -9 -23 -15 -47 -11 -5 0 -8 -4
-8 -10 0 -6 -11 -8 -28 -4 -20 4 -34 0 -51 -16 -17 -16 -25 -19 -31 -9 -6 9
-14 8 -38 -4 -17 -9 -52 -18 -76 -20 -25 -3 -55 -10 -68 -17 -12 -7 -37 -12
-56 -11 -20 1 -35 -4 -38 -13 -3 -7 -11 -12 -18 -9 -17 7 -100 -13 -104 -24
-2 -6 -12 -8 -22 -5 -11 3 -20 1 -20 -4 0 -5 -35 -15 -77 -22 -43 -8 -100 -22
-128 -32 -27 -11 -58 -19 -67 -19 -9 0 -29 -5 -45 -12 -15 -6 -37 -13 -48 -14
-89 -10 -181 -38 -177 -53 2 -8 -4 -10 -18 -6 -12 4 -20 2 -20 -6 0 -9 -4 -8
-15 1 -15 12 -50 6 -42 -7 3 -5 -9 -9 -26 -10 -43 -2 -154 -26 -163 -35 -4 -5
-23 -8 -43 -8 -35 -1 -35 -1 -12 -14 20 -11 21 -14 7 -19 -11 -5 -15 -3 -10 5
11 17 -100 2 -146 -21 -21 -10 -50 -16 -64 -14 -26 5 -37 -12 -13 -20 6 -2 3
-3 -7 -1 -11 2 -41 -2 -69 -9 -38 -8 -45 -13 -31 -18 11 -5 1 -7 -26 -5 -56 5
-126 -7 -123 -20 1 -6 -11 -9 -26 -6 -16 2 -32 -1 -35 -7 -4 -6 -18 -11 -31
-11 -13 0 -31 -7 -39 -16 -9 -8 -21 -12 -27 -8 -7 4 -10 3 -7 -2 4 -5 -23 -10
-58 -11 -43 -1 -69 -6 -79 -17 -17 -17 -28 -20 -58 -16 -10 1 -24 -3 -30 -8
-7 -5 -29 -12 -50 -16 -21 -4 -36 -10 -33 -14 2 -4 -12 -8 -32 -8 -69 -2 -138
-21 -174 -46 -16 -11 -33 -16 -39 -13 -15 10 -81 -4 -74 -15 3 -6 -1 -7 -9 -4
-9 3 -16 1 -16 -6 0 -7 -8 -9 -20 -5 -25 8 -120 -15 -120 -28 0 -5 -7 -7 -15
-3 -8 3 -15 1 -15 -4 0 -5 8 -11 18 -13 13 -4 11 -5 -5 -6 -14 -1 -23 5 -23
13 0 11 -8 12 -42 4 -52 -11 -98 -30 -98 -40 0 -4 -7 -5 -15 -1 -20 7 -107
-16 -120 -32 -6 -7 -19 -12 -30 -12 -61 1 -95 -5 -110 -19 -8 -9 -33 -17 -55
-18 -22 -1 -42 -5 -46 -9 -4 -4 -19 -7 -33 -7 -15 0 -69 -11 -121 -25 -408
-106 -485 -127 -490 -133 -8 -12 -91 -33 -142 -37 -27 -2 -55 -10 -64 -19 -9
-10 -24 -14 -35 -11 -43 14 -89 -33 -89 -90 0 -36 5 -48 31 -69 17 -14 37 -26
44 -26 8 0 65 13 127 29 62 16 120 31 128 33 12 2 14 -4 10 -27 -3 -16 -5 -79
-5 -140 0 -101 3 -115 29 -169 16 -33 42 -72 57 -87 15 -15 26 -29 23 -32 -8
-7 85 -79 95 -73 5 3 11 -1 15 -9 3 -8 12 -12 20 -9 8 3 24 -4 36 -16 11 -11
26 -18 32 -14 6 4 8 3 5 -3 -9 -14 50 -23 138 -22 78 1 117 9 115 24 0 6 19
12 42 15 44 6 135 59 131 77 -1 5 18 31 42 56 24 26 41 47 38 47 -4 0 3 9 14
19 11 11 28 44 38 75 33 104 4 346 -41 346 -7 0 -18 17 -23 38 -6 20 -22 46
-36 56 -37 27 -31 44 19 57 25 6 47 17 50 25 4 9 22 14 56 14 32 0 49 4 45 10
-3 6 0 11 7 12 19 2 50 5 76 7 13 0 21 5 18 10 -3 5 9 8 27 7 18 0 31 4 30 10
-1 6 11 9 30 6 26 -3 29 -1 17 8 -12 9 -10 10 12 6 15 -4 28 -1 30 5 2 7 33
13 72 14 52 3 71 8 84 23 12 14 26 18 48 15 18 -3 35 0 38 6 4 6 18 11 31 11
29 0 56 10 51 19 -3 4 11 5 31 3 23 -3 38 0 44 9 4 8 23 14 41 15 47 2 68 9
77 23 4 7 22 13 39 13 18 1 32 5 32 10 0 4 5 8 11 8 5 0 7 -5 3 -12 -5 -8 -2
-9 10 -5 10 4 23 7 29 7 7 0 6 4 -3 10 -11 7 -5 8 20 4 27 -4 32 -3 20 5 -12
9 -9 10 11 5 31 -7 141 25 133 38 -4 5 10 6 30 3 23 -5 36 -3 36 4 0 6 13 9
33 6 28 -4 29 -4 7 4 l-25 9 25 2 c82 4 117 14 142 37 15 15 34 23 45 20 15
-4 14 -5 -4 -6 -12 0 -25 -5 -28 -11 -8 -13 -5 -13 65 7 37 10 57 20 53 27 -4
6 1 4 11 -4 16 -12 19 -12 27 3 7 12 23 17 59 17 53 0 83 8 75 20 -2 4 8 5 23
3 22 -3 23 -2 7 5 -18 8 -17 9 7 15 15 4 35 5 45 2 10 -3 5 1 -12 9 -16 8 -25
15 -18 16 6 0 20 3 30 6 15 5 16 4 3 -6 -12 -9 -9 -10 15 -6 19 4 25 3 17 -2
-26 -17 17 -23 48 -7 16 8 40 16 54 17 13 1 23 5 21 8 -2 4 8 7 23 7 43 0 117
24 103 32 -7 5 23 11 66 14 87 7 132 24 125 47 -4 12 -2 13 9 3 14 -14 51 -17
63 -6 3 4 14 8 23 9 41 6 63 15 58 23 -2 5 21 9 53 8 36 0 67 6 82 15 14 9 44
19 68 23 23 4 42 11 42 17 0 5 9 7 20 3 11 -3 30 1 44 10 14 9 31 13 37 9 8
-4 9 -3 5 5 -4 7 -17 9 -29 6 -19 -5 -19 -4 -5 5 11 7 25 7 43 0 33 -13 48
-13 40 0 -3 6 1 7 9 4 9 -3 35 1 58 10 24 8 59 17 78 20 48 6 101 26 95 36 -3
4 5 6 17 3 19 -4 20 -3 8 6 -13 9 -13 11 0 11 9 0 21 -5 28 -12 8 -8 15 -8 24
-1 7 6 32 14 56 18 23 4 40 10 37 15 -3 4 13 6 35 3 24 -3 40 -2 40 5 0 5 12
12 28 15 70 15 146 36 137 37 -14 3 60 20 112 27 24 3 40 9 37 14 -3 5 7 9 23
9 15 0 41 7 58 16 16 8 40 13 52 9 13 -3 31 -1 40 4 10 5 32 13 48 17 17 4 33
8 38 9 4 2 10 3 15 4 4 1 0 6 -8 12 -12 8 -9 10 13 6 38 -6 34 9 -5 17 -17 3
-29 8 -26 11 2 3 19 0 37 -5 22 -6 40 -6 52 0 10 6 26 10 36 9 10 0 3 -5 -15
-10 -19 -6 -30 -14 -26 -20 4 -8 9 -8 13 -1 5 9 53 21 105 27 12 1 21 3 21 5
0 1 9 3 20 5 75 10 205 47 205 57 0 4 11 8 25 8 14 0 25 5 25 11 0 6 8 8 19 4
11 -3 46 2 78 11 52 16 56 18 33 26 -21 6 -20 7 7 3 42 -6 135 12 148 28 6 7
26 14 45 15 49 5 94 12 99 18 2 2 -1 4 -7 4 -7 0 -12 5 -12 10 0 6 7 10 15 10
8 0 15 -4 15 -9 0 -8 111 11 150 25 12 4 12 7 1 13 -7 5 12 7 43 4 45 -3 58 0
62 12 4 9 13 14 20 11 8 -3 22 -2 31 1 15 6 15 7 -3 14 -14 6 -11 8 16 9 19 0
53 5 75 11 22 6 74 16 115 23 75 12 84 15 152 43 20 8 42 12 48 8 7 -4 16 -2
20 5 5 8 22 13 39 13 17 0 31 4 31 9 0 4 11 8 25 8 45 0 147 33 133 43 -9 6
-6 7 9 4 13 -3 28 1 34 10 10 11 14 11 20 1 6 -9 20 -8 63 5 30 10 62 24 70
32 17 17 30 20 21 5 -10 -16 16 -12 81 11 32 12 76 21 97 20 24 -1 39 3 43 13
3 8 13 15 22 14 33 0 130 21 167 36 20 9 48 16 61 16 14 0 32 4 42 9 38 19 89
34 130 38 23 3 42 9 42 13 0 11 126 44 144 37 8 -3 18 -2 21 3 4 6 19 10 34
10 15 0 31 3 35 7 4 4 15 8 24 8 9 0 16 6 14 13 -2 11 8 12 45 8 36 -5 44 -3
30 4 -9 6 -23 8 -30 4 -9 -5 -9 -4 -1 5 8 9 18 9 38 1 40 -15 56 -11 21 5 -30
14 -30 14 20 13 37 -1 45 -3 30 -9 -14 -6 -9 -7 15 -3 19 4 37 10 38 15 2 5
21 12 42 15 21 4 41 13 44 21 4 9 13 13 22 9 8 -3 13 -2 9 3 -3 5 -1 21 5 36
14 37 3 70 -28 86 -28 14 -68 20 -77 11z m87 -100 c-7 -20 -21 5 -15 29 3 11
0 19 -6 19 -7 0 -9 5 -5 12 10 15 34 -40 26 -60z m-215 32 c-3 -3 -12 -4 -19
-1 -8 3 -5 6 6 6 11 1 17 -2 13 -5z m10 -20 c-3 -3 -12 -4 -19 -1 -8 3 -5 6 6
6 11 1 17 -2 13 -5z m-367 -64 c11 -7 5 -8 -20 -4 -43 8 -51 14 -19 14 13 0
31 -5 39 -10z m47 -16 c-3 -3 -12 -4 -19 -1 -8 3 -5 6 6 6 11 1 17 -2 13 -5z
m230 -30 c-3 -3 -12 -4 -19 -1 -8 3 -5 6 6 6 11 1 17 -2 13 -5z m-574 -21 c-7
-2 -21 -2 -30 0 -10 3 -4 5 12 5 17 0 24 -2 18 -5z m307 -33 c0 -5 -5 -10 -11
-10 -5 0 -7 5 -4 10 3 6 8 10 11 10 2 0 4 -4 4 -10z m-7 -27 c-7 -2 -21 -2
-30 0 -10 3 -4 5 12 5 17 0 24 -2 18 -5z m-596 -29 c-3 -3 -12 -4 -19 -1 -8 3
-5 6 6 6 11 1 17 -2 13 -5z m103 -12 c3 -3 -14 -2 -38 2 -29 4 -41 3 -37 -4 4
-6 -9 -10 -34 -10 -22 0 -42 4 -46 9 -3 6 8 8 29 4 20 -3 36 -1 41 6 6 11 73
6 85 -7z m285 -22 c-11 -5 -27 -9 -35 -9 -13 -1 -13 0 0 9 8 5 24 9 35 9 l20
0 -20 -9z m-113 -7 c-6 -2 -10 -8 -8 -12 3 -4 -9 -5 -27 -2 l-32 5 30 7 c36 8
55 9 37 2z m51 -10 c-7 -2 -19 -2 -25 0 -7 3 -2 5 12 5 14 0 19 -2 13 -5z
m-594 -27 c-2 -2 -22 -6 -44 -9 -27 -4 -35 -3 -25 3 14 9 79 15 69 6z m504 -3
c-7 -2 -19 -2 -25 0 -7 3 -2 5 12 5 14 0 19 -2 13 -5z m-510 -20 c-7 -2 -19
-2 -25 0 -7 3 -2 5 12 5 14 0 19 -2 13 -5z m302 -13 c-3 -5 -13 -10 -21 -10
-8 0 -12 -4 -9 -10 7 -11 -18 -14 -29 -3 -5 6 31 25 62 32 2 1 0 -3 -3 -9z
m52 4 c-3 -3 -12 -4 -19 -1 -8 3 -5 6 6 6 11 1 17 -2 13 -5z m-637 -24 c0 -5
-7 -10 -16 -10 -8 0 -12 5 -9 10 3 6 10 10 16 10 5 0 9 -4 9 -10z m510 -10
c18 -12 2 -12 -25 0 -13 6 -15 9 -5 9 8 0 22 -4 30 -9z m-563 -15 c0 -8 -4
-12 -9 -9 -5 3 -6 10 -3 15 9 13 12 11 12 -6z m46 -22 c-7 -2 -19 -2 -25 0 -7
3 -2 5 12 5 14 0 19 -2 13 -5z m344 -9 c-3 -3 -12 -4 -19 -1 -8 3 -5 6 6 6 11
1 17 -2 13 -5z m-650 -30 c-3 -3 -12 -4 -19 -1 -8 3 -5 6 6 6 11 1 17 -2 13
-5z m-90 -30 c-3 -3 -12 -4 -19 -1 -8 3 -5 6 6 6 11 1 17 -2 13 -5z m322 -40
c10 -9 -35 -3 -49 6 -11 8 -7 9 15 4 17 -4 32 -8 34 -10z m61 9 c-8 -3 -24
-10 -35 -15 -20 -9 -20 -9 -1 6 11 9 27 16 35 15 14 0 14 -1 1 -6z m-610 -43
c-8 -5 -22 -9 -30 -9 -10 0 -8 3 5 9 27 12 43 12 25 0z m307 -36 c-3 -3 -12
-4 -19 -1 -8 3 -5 6 6 6 11 1 17 -2 13 -5z m-54 -11 c-7 -2 -19 -2 -25 0 -7 3
-2 5 12 5 14 0 19 -2 13 -5z m-570 -30 c-7 -2 -19 -2 -25 0 -7 3 -2 5 12 5 14
0 19 -2 13 -5z m15 -20 c-10 -2 -26 -2 -35 0 -10 3 -2 5 17 5 19 0 27 -2 18
-5z m233 -18 c0 -6 -11 -11 -23 -12 -21 -1 -21 -1 1 4 19 4 21 7 10 15 -10 7
-11 9 -1 6 8 -2 13 -8 13 -13z m99 5 c0 -5 -14 -7 -32 -3 -46 8 -48 13 -5 13
21 0 37 -4 37 -10z m-43 -16 c-3 -3 -12 -4 -19 -1 -8 3 -5 6 6 6 11 1 17 -2
13 -5z m-574 -31 c-7 -2 -21 -2 -30 0 -10 3 -4 5 12 5 17 0 24 -2 18 -5z m-76
-9 c-3 -3 -12 -4 -19 -1 -8 3 -5 6 6 6 11 1 17 -2 13 -5z m50 -10 c-3 -3 -12
-4 -19 -1 -8 3 -5 6 6 6 11 1 17 -2 13 -5z m356 -21 c-7 -2 -19 -2 -25 0 -7 3
-2 5 12 5 14 0 19 -2 13 -5z m-173 -37 c0 -3 -4 -8 -10 -11 -5 -3 -10 -1 -10
4 0 6 5 11 10 11 6 0 10 -2 10 -4z m-473 -22 c-3 -3 -12 -4 -19 -1 -8 3 -5 6
6 6 11 1 17 -2 13 -5z m350 -10 c-3 -3 -12 -4 -19 -1 -8 3 -5 6 6 6 11 1 17
-2 13 -5z m-70 -20 c-3 -3 -12 -4 -19 -1 -8 3 -5 6 6 6 11 1 17 -2 13 -5z
m-668 -38 c-2 -2 -20 -6 -39 -10 l-35 -6 35 14 c31 12 51 13 39 2z m78 8 c-3
-3 -12 -4 -19 -1 -8 3 -5 6 6 6 11 1 17 -2 13 -5z m-14 -131 c-7 -2 -19 -2
-25 0 -7 3 -2 5 12 5 14 0 19 -2 13 -5z m-583 -7 c0 -2 -7 -7 -16 -10 -8 -3
-12 -2 -9 4 6 10 25 14 25 6z m257 -22 c-3 -3 -12 -4 -19 -1 -8 3 -5 6 6 6 11
1 17 -2 13 -5z m-257 -8 c0 -2 -7 -7 -16 -10 -8 -3 -12 -2 -9 4 6 10 25 14 25
6z m223 -31 c1 -6 -10 -11 -26 -11 l-27 -1 27 4 c21 4 23 7 12 15 -10 7 -10 9
-1 6 8 -2 14 -8 15 -13z m144 9 c-3 -3 -12 -4 -19 -1 -8 3 -5 6 6 6 11 1 17
-2 13 -5z m-40 -10 c-3 -3 -12 -4 -19 -1 -8 3 -5 6 6 6 11 1 17 -2 13 -5z
m-44 -11 c-7 -2 -19 -2 -25 0 -7 3 -2 5 12 5 14 0 19 -2 13 -5z m-600 -10 c-7
-2 -21 -2 -30 0 -10 3 -4 5 12 5 17 0 24 -2 18 -5z m200 -10 c-7 -2 -21 -2
-30 0 -10 3 -4 5 12 5 17 0 24 -2 18 -5z m322 -3 c-3 -5 -13 -10 -21 -10 -8 0
-12 5 -9 10 3 6 13 10 21 10 8 0 12 -4 9 -10z m-652 -27 c-7 -2 -19 -2 -25 0
-7 3 -2 5 12 5 14 0 19 -2 13 -5z m357 -13 c-12 -8 -12 -10 -1 -10 8 0 12 -3
8 -6 -9 -9 -28 6 -22 17 4 5 12 9 18 9 7 0 6 -4 -3 -10z m-500 -20 c-8 -5 -24
-9 -35 -9 -16 1 -16 2 5 9 35 11 48 11 30 0z m435 0 c-3 -5 -12 -10 -18 -10
-7 0 -6 4 3 10 19 12 23 12 15 0z m45 -20 c-19 -13 -30 -13 -30 0 0 6 10 10
23 10 18 0 19 -2 7 -10z m-567 -7 c-7 -2 -19 -2 -25 0 -7 3 -2 5 12 5 14 0 19
-2 13 -5z m30 -20 c-7 -2 -19 -2 -25 0 -7 3 -2 5 12 5 14 0 19 -2 13 -5z m270
-20 c-7 -2 -19 -2 -25 0 -7 3 -2 5 12 5 14 0 19 -2 13 -5z m-10 -20 c-7 -2
-19 -2 -25 0 -7 3 -2 5 12 5 14 0 19 -2 13 -5z m-553 -23 c-8 -5 -22 -9 -30
-9 -10 0 -8 3 5 9 27 12 43 12 25 0z m253 -47 c-7 -2 -19 -2 -25 0 -7 3 -2 5
12 5 14 0 19 -2 13 -5z m-546 -19 c-3 -3 -12 -4 -19 -1 -8 3 -5 6 6 6 11 1 17
-2 13 -5z m6 -21 c-7 -2 -19 -2 -25 0 -7 3 -2 5 12 5 14 0 19 -2 13 -5z m257
-23 c-8 -5 -19 -10 -25 -10 -5 0 -3 5 5 10 8 5 20 10 25 10 6 0 3 -5 -5 -10z
m117 -6 c-3 -3 -12 -4 -19 -1 -8 3 -5 6 6 6 11 1 17 -2 13 -5z m-180 -10 c-3
-3 -12 -4 -19 -1 -8 3 -5 6 6 6 11 1 17 -2 13 -5z m96 -1 c-7 -2 -19 -2 -25 0
-7 3 -2 5 12 5 14 0 19 -2 13 -5z m-593 -33 c18 -12 2 -12 -25 0 -13 6 -15 9
-5 9 8 0 22 -4 30 -9z m497 4 c-3 -3 -12 -4 -19 -1 -8 3 -5 6 6 6 11 1 17 -2
13 -5z m-120 -30 c-3 -3 -12 -4 -19 -1 -8 3 -5 6 6 6 11 1 17 -2 13 -5z m-54
-11 c-7 -2 -19 -2 -25 0 -7 3 -2 5 12 5 14 0 19 -2 13 -5z m-298 -13 c3 -5 -1
-10 -9 -10 -9 0 -16 5 -16 10 0 6 4 10 9 10 6 0 13 -4 16 -10z m-322 -27 c-7
-2 -19 -2 -25 0 -7 3 -2 5 12 5 14 0 19 -2 13 -5z m247 -33 c13 -9 13 -10 0
-10 -8 0 -22 5 -30 10 -13 9 -13 10 0 10 8 0 22 -5 30 -10z m-607 -47 c-7 -2
-19 -2 -25 0 -7 3 -2 5 12 5 14 0 19 -2 13 -5z m314 -39 c-3 -3 -12 -4 -19 -1
-8 3 -5 6 6 6 11 1 17 -2 13 -5z m-554 -41 c-7 -2 -21 -2 -30 0 -10 3 -4 5 12
5 17 0 24 -2 18 -5z m-6 -19 c-3 -3 -12 -4 -19 -1 -8 3 -5 6 6 6 11 1 17 -2
13 -5z m220 -30 c-3 -3 -12 -4 -19 -1 -8 3 -5 6 6 6 11 1 17 -2 13 -5z m-599
-23 c11 -7 10 -9 -3 -14 -10 -4 -14 -3 -10 4 4 6 -4 8 -22 4 -23 -4 -24 -4 -8
4 26 12 27 12 43 2z m-208 -61 c0 -5 -8 -10 -17 -10 -15 0 -16 2 -3 10 19 12
20 12 20 0z m563 3 c-7 -2 -21 -2 -30 0 -10 3 -4 5 12 5 17 0 24 -2 18 -5z
m-310 -70 c-7 -2 -19 -2 -25 0 -7 3 -2 5 12 5 14 0 19 -2 13 -5z m-60 -10 c-7
-2 -19 -2 -25 0 -7 3 -2 5 12 5 14 0 19 -2 13 -5z m-554 -249 c33 -17 67 -45
91 -76 60 -75 74 -149 46 -242 -17 -56 -16 -51 -16 -77 0 -13 -5 -19 -13 -16
-12 4 -40 -17 -31 -25 6 -6 -122 -58 -144 -58 -15 0 -15 -2 -2 -10 11 -7 -2
-10 -42 -10 -32 0 -58 4 -58 8 0 4 -20 16 -45 26 -42 18 -115 80 -115 98 0 5
-12 20 -26 34 -25 23 -27 30 -28 121 -1 69 3 97 12 100 6 3 10 9 6 14 -3 5 2
12 10 15 9 3 16 12 16 20 0 8 7 14 16 14 8 0 13 4 9 9 -11 19 63 66 112 72
107 13 147 10 202 -17z"/>
<path d="M5178 6383 c7 -3 16 -2 19 1 4 3 -2 6 -13 5 -11 0 -14 -3 -6 -6z"/>
<path d="M4923 5813 c9 -2 23 -2 30 0 6 3 -1 5 -18 5 -16 0 -22 -2 -12 -5z"/>
<path d="M8327 5054 c-3 -3 -18 -30 -32 -60 -65 -134 -329 -266 -881 -444
-121 -38 -225 -70 -232 -70 -7 0 -43 18 -79 40 -79 48 -141 60 -190 36 -39
-18 -57 -55 -68 -132 l-6 -51 -337 -103 c-185 -57 -442 -133 -570 -170 -206
-59 -237 -71 -267 -100 -45 -44 -58 -86 -53 -175 4 -91 27 -129 79 -132 112
-8 273 -68 489 -179 154 -80 472 -267 489 -287 7 -9 5 -69 -5 -187 -40 -484
-22 -880 47 -1064 65 -174 197 -250 352 -201 58 18 163 101 140 111 -246 106
-263 731 -52 1964 22 129 43 237 47 241 4 3 85 25 181 48 949 230 1261 454
1096 787 -47 95 -118 157 -148 128z m137 -211 c20 -59 20 -120 0 -168 -20 -49
-25 -42 -11 18 11 48 2 141 -19 191 -5 13 -4 17 3 13 6 -4 18 -28 27 -54z
m-2169 -698 c-86 -40 -411 -132 -424 -119 -2 1 10 6 25 10 55 13 329 93 369
108 50 18 70 19 30 1z m473 -207 c-47 -346 -68 -507 -68 -530 0 -16 -3 -28 -6
-28 -7 0 -52 32 -240 171 -72 54 -189 137 -260 185 -71 48 -130 90 -132 94 -4
9 641 167 694 169 20 1 20 -2 12 -61z m273 -360 c-59 -339 -90 -667 -92 -993
-1 -119 -4 -160 -10 -135 -8 35 -12 448 -4 525 2 22 6 72 10 110 10 113 43
320 75 468 17 76 30 141 30 144 0 4 3 4 6 1 3 -3 -4 -57 -15 -120z m-115 -340
c-9 -179 -36 -541 -41 -553 -3 -5 -3 107 -1 250 3 192 8 283 21 348 9 48 20
87 22 87 3 0 3 -60 -1 -132z"/>
<path d="M5948 5013 c7 -3 16 -2 19 1 4 3 -2 6 -13 5 -11 0 -14 -3 -6 -6z"/>
<path d="M12179 4898 c-106 -47 -230 -239 -335 -519 -24 -65 -44 -123 -44
-128 0 -5 -4 -12 -8 -15 -5 -3 -1 43 9 102 11 59 19 146 19 194 0 88 0 88 -37
130 -48 52 -103 77 -171 78 -67 0 -106 -17 -163 -71 -62 -58 -117 -142 -185
-281 -30 -62 -52 -104 -49 -93 45 141 45 178 -2 221 -20 19 -40 34 -43 34 -10
0 -69 -308 -77 -397 -8 -92 -22 -64 -16 32 4 57 55 304 74 353 8 20 5 25 -28
39 -20 8 -63 20 -95 26 -49 9 -64 8 -92 -6 -40 -18 -37 -13 -70 -182 -37 -192
-56 -341 -67 -522 -9 -153 -12 -169 -55 -295 -52 -151 -91 -239 -143 -317
l-36 -54 -8 34 c-15 64 -20 442 -8 561 15 135 36 263 56 338 21 80 19 95 -21
134 -45 44 -128 76 -195 76 -73 0 -93 -24 -108 -131 -87 -613 -180 -954 -286
-1048 -84 -73 -100 -31 -92 233 6 193 25 376 52 508 20 93 12 150 -26 186 -36
33 -98 57 -104 39 -5 -14 -55 -380 -55 -403 0 -9 -5 -12 -11 -8 -11 6 -9 59 7
224 7 67 30 175 44 200 12 22 -3 30 -80 37 -80 7 -84 -1 -104 -177 -9 -80 -19
-160 -21 -178 -11 -73 -25 -313 -25 -414 0 -89 -4 -121 -26 -185 -41 -124
-118 -275 -168 -329 l-44 -49 -21 46 c-11 25 -28 88 -38 140 -24 128 -24 515
0 754 24 235 42 384 48 388 8 8 264 77 308 83 l43 7 -6 49 c-10 69 -44 135
-76 147 -31 10 -89 1 -172 -28 -65 -22 -64 -24 -67 69 -3 82 -36 154 -95 208
-44 41 -110 67 -139 56 -35 -13 -72 -130 -107 -346 l-23 -137 -49 -10 c-27 -6
-63 -11 -79 -11 -35 0 -35 4 12 109 l29 63 -29 27 c-38 36 -146 71 -215 71
-47 0 -58 -4 -75 -25 -28 -37 -52 -152 -58 -282 -7 -131 2 -153 70 -183 100
-43 154 -32 173 35 9 30 16 39 30 37 11 -1 54 -5 97 -9 74 -6 78 -7 72 -27 -4
-12 -9 -199 -11 -415 l-4 -395 -55 -170 c-70 -212 -177 -437 -199 -415 -17 17
-28 172 -23 339 5 186 29 358 77 574 29 130 27 167 -11 211 -18 20 -44 42 -59
50 -70 36 -181 41 -223 10 -24 -17 -31 -51 -63 -287 -31 -238 -43 -590 -24
-731 27 -201 114 -341 229 -366 69 -15 95 -14 136 3 81 34 168 165 244 367
l39 102 21 -48 c12 -26 21 -50 21 -53 0 -3 16 -29 35 -57 61 -93 127 -136 209
-138 108 -2 210 95 291 278 l25 58 55 -52 c97 -92 212 -123 299 -82 95 46 159
143 248 370 8 23 12 19 42 -51 18 -42 48 -95 65 -117 36 -46 120 -91 168 -91
101 0 231 131 304 308 12 28 24 52 28 52 3 0 14 -20 24 -44 22 -53 79 -121
118 -141 38 -20 92 -19 111 3 9 10 21 55 28 107 36 278 157 715 279 1006 48
114 60 127 48 48 -6 -35 -10 -185 -11 -334 0 -215 3 -286 16 -347 35 -160 99
-277 172 -312 74 -35 133 -11 142 59 22 189 103 523 189 779 58 174 144 386
155 386 4 0 1 -30 -6 -67 -45 -242 -57 -584 -25 -739 39 -191 128 -294 253
-294 46 0 62 5 103 34 26 19 68 58 92 88 98 117 212 408 299 765 50 201 40
243 -36 161 -63 -67 -94 -131 -170 -353 -39 -113 -86 -239 -105 -280 -40 -88
-103 -187 -115 -180 -5 3 -11 42 -15 88 -9 102 12 319 60 627 53 340 48 391
-42 453 -72 48 -152 58 -224 25z m-3550 -504 c-13 -79 -36 -175 -44 -182 -10
-11 -4 65 10 128 33 140 55 175 34 54z m3540 -628 c11 -61 8 -68 -13 -29 -21
43 -39 187 -32 268 15 165 20 163 28 -14 4 -95 12 -196 17 -225z m-3119 158
c-7 -115 -10 -262 -8 -327 1 -64 -1 -117 -6 -117 -11 0 -3 630 8 648 4 7 10
11 13 9 2 -3 -1 -99 -7 -213z m2480 -19 c6 -93 17 -203 24 -242 7 -40 9 -73 6
-73 -4 0 -15 26 -25 58 -13 44 -18 102 -21 257 -3 235 1 235 16 0z m-1096 -5
c-10 -112 -14 -234 -11 -340 3 -123 2 -159 -6 -140 -15 35 -14 361 1 490 17
136 22 173 27 168 2 -2 -3 -82 -11 -178z m-1779 -618 c-10 -86 -18 -230 -19
-319 -1 -112 -4 -155 -11 -140 -13 30 -10 384 4 481 13 89 33 165 39 147 2 -6
-4 -82 -13 -169z"/>
<path d="M4250 4746 c0 -2 8 -10 18 -17 15 -13 16 -12 3 4 -13 16 -21 21 -21
13z"/>
<path d="M8094 3780 c-51 -22 -121 -99 -167 -180 -76 -136 -153 -384 -192
-615 -9 -55 -19 -102 -21 -104 -17 -17 6 290 41 533 22 159 21 169 -20 204
-58 52 -165 68 -244 36 -47 -18 -48 -21 -66 -144 -29 -187 -40 -475 -27 -658
25 -341 86 -522 197 -587 40 -24 54 -27 107 -23 92 7 94 12 101 215 6 191 30
341 102 623 62 246 56 238 88 131 69 -229 161 -332 265 -298 46 15 50 37 23
116 -50 145 -52 297 -7 484 30 124 33 193 10 225 -35 50 -128 71 -190 42z
m-599 -406 c-8 -54 -15 -146 -15 -204 -1 -81 -3 -101 -11 -86 -16 26 -6 234
16 324 9 40 19 72 21 69 2 -2 -3 -48 -11 -103z m584 -227 c16 -41 -5 -24 -30
25 -11 22 -23 66 -25 97 l-4 56 24 -75 c13 -41 29 -88 35 -103z"/>
</g>
</svg>
